<?xml version="1.0" encoding="UTF-8"?>
<svg id="Layer_2" data-name="Layer 2" xmlns="http://www.w3.org/2000/svg" viewBox="0 0 1059.34 206.25">
  <defs>
    <style>
      .cls-1 {
        fill: #231f20;
        stroke-width: 0px;
      }
    </style>
  </defs>
  <g id="Layer_1-2" data-name="Layer 1">
    <g>
      <path class="cls-1" d="m891.77,87.61v47.28c-14.15-13.14-32.51-22.01-52.95-23.55h2.79c-1.51,0-3.02-.04-4.51-.11-.18,0-.37-.02-.55-.03-46.03-2.62-82.55-40.78-82.55-87.46V0h50.16c48.38,0,87.61,39.22,87.61,87.61Z"/>
      <circle class="cls-1" cx="856.4" cy="170.87" r="35.38"/>
      <path class="cls-1" d="m982.15,70.49c3.86-39.58,36.95-70.49,77.19-70.49h-77.57c-42.84,0-77.57,35.04-77.57,78.26v127.99c42.84,0,77.57-35.04,77.57-78.26m-14.08-85.1c-7.78,0-14.08-6.31-14.08-14.08s6.31-14.08,14.08-14.08,14.08,6.31,14.08,14.08-6.31,14.08-14.08,14.08Z"/>
    </g>
    <path class="cls-1" d="m8.5,34.67h13.62c3.7,0,6.97,2.39,8.1,5.92l27.31,85.74c2.51,7.89,13.68,7.89,16.19,0l27.31-85.74c1.12-3.52,4.4-5.92,8.1-5.92h13.62c4.69,0,8.5,3.8,8.5,8.5v119.9c0,4.69-3.8,8.5-8.5,8.5h-1.89c-4.69,0-8.5-3.8-8.5-8.5v-54.24c0-9.64-13.51-11.83-16.56-2.68l-19.84,59.61c-1.16,3.47-4.4,5.81-8.06,5.81h-3.83c-3.64,0-6.88-2.32-8.05-5.77l-20.59-60.66c-3.09-9.1-16.54-6.88-16.54,2.73v55.2c0,4.69-3.8,8.5-8.5,8.5h-1.89c-4.69,0-8.5-3.8-8.5-8.5V43.17c0-4.69,3.8-8.5,8.5-8.5Z"/>
    <path class="cls-1" d="m167.93,34.68h1.89c4.69,0,8.5,3.8,8.5,8.5v119.9c0,4.69-3.8,8.5-8.5,8.5h-1.89c-4.69,0-8.5-3.8-8.5-8.5V43.18c0-4.69,3.8-8.5,8.5-8.5Z"/>
    <path class="cls-1" d="m586.46,43.18v1.89c0,4.69-3.8,8.5-8.5,8.5h-79.82c-4.69,0-8.5-3.8-8.5-8.5v-1.89c0-4.69,3.8-8.5,8.5-8.5h79.82c4.69,0,8.5,3.8,8.5,8.5Z"/>
    <path class="cls-1" d="m586.46,161.19v1.89c0,4.69-3.8,8.5-8.5,8.5h-79.82c-4.69,0-8.5-3.8-8.5-8.5v-1.89c0-4.69,3.8-8.5,8.5-8.5h79.82c4.69,0,8.5,3.8,8.5,8.5Z"/>
    <path class="cls-1" d="m586.46,102.19v1.89c0,4.69-3.8,8.5-8.5,8.5h-79.82c-4.69,0-8.5-3.8-8.5-8.5v-1.89c0-4.69,3.8-8.5,8.5-8.5h79.82c4.69,0,8.5,3.8,8.5,8.5Z"/>
    <path class="cls-1" d="m299.23,40.91c8.13,4.48,14.14,10.91,18.04,19.28,2.23,4.78-.46,10.42-5.56,11.76l-.95.25c-3.61.96-7.51-.45-9.5-3.62-3.16-5.02-7.15-9.01-11.99-11.96-6.37-3.88-14.52-6.15-24.47-6.82-.27-.02-.54-.03-.81-.02-8.91.06-17.16,1.98-24.76,5.76-7.71,3.84-13.31,9.87-16.81,18.08s-5.24,18.05-5.24,29.5,1.98,21.34,5.95,29.83c3.97,8.5,9.52,14.54,16.66,18.13,7.04,3.53,15.1,5.33,24.18,5.38.28,0,.56,0,.83-.03,8.52-.63,16.15-1.79,22.9-3.46,5.49-1.36,10.45-3.71,14.9-7.04,2.08-1.56,3.23-4.07,3.23-6.67v-12.07c0-4.69-3.8-8.5-8.5-8.5h-22.71c-4.67,0-8.47-3.78-8.5-8.45h0c-.03-4.71,3.79-8.54,8.5-8.54h41.59c4.69,0,8.5,3.8,8.5,8.5v38.84c0,2.41-1,4.72-2.8,6.32-6.06,5.38-13.61,9.62-22.64,12.71-10.48,3.59-22.11,5.38-34.89,5.38-13.16.63-24.61-1.56-34.37-6.56-9.76-5-17.48-13.45-23.18-25.35-5.7-11.9-8.51-24.7-8.45-38.43-.06-12.84,2.6-25,7.98-36.49,5.38-11.49,13.26-20,23.65-25.54,10.39-5.54,21.84-8.31,34.37-8.31,12.27-.63,23.89,2.08,34.84,8.12Z"/>
    <path class="cls-1" d="m366.22,34.67h6.71c2.88,0,5.56,1.46,7.13,3.87l51.73,79.69c4.61,7.1,15.62,3.83,15.62-4.63V43.17c0-4.69,3.8-8.5,8.5-8.5h1.89c4.69,0,8.5,3.8,8.5,8.5v119.9c0,4.69-3.8,8.5-8.5,8.5h-6.72c-2.88,0-5.56-1.46-7.13-3.87l-51.73-79.69c-4.61-7.1-15.62-3.83-15.62,4.63v70.44c0,4.69-3.8,8.5-8.5,8.5h-1.89c-4.69,0-8.5-3.8-8.5-8.5V43.17c0-4.69,3.8-8.5,8.5-8.5Z"/>
    <path class="cls-1" d="m618.3,34.67h92.52c4.69,0,8.5,3.8,8.5,8.5h0c0,4.69-3.8,8.5-8.5,8.5h-28.32c-4.69,0-8.5,3.8-8.5,8.5v102.91c0,4.69-3.8,8.5-8.5,8.5h-1.89c-4.69,0-8.5-3.8-8.5-8.5V60.17c0-4.69-3.8-8.5-8.5-8.5h-28.32c-4.69,0-8.5-3.8-8.5-8.5h0c0-4.69,3.8-8.5,8.5-8.5Z"/>
    <text/>
    <text/>
    <text/>
  </g>
</svg>